# xmcd
#
# Track frame offsets: 
#        150
#        21420
#        38167
#        55384
#        62163
#        78937
#        94901
#        105558
#        120719
#        138252
#        172051
#        187757
#        209309
#        223682
#        244610
#        265506
#        282462
#        299418
#        309852
#        326349
#        342265
#
# Disc length: 4794 seconds
#
# Revision: 0
# Processed by: cddbd v1.5.2PL0 Copyright (c) Steve Scherf et al.
# Submitted via: ExactAudioCopy v0.95b4
#
DISCID=3412b815
DTITLE=Joy Division - The Day Of The Lords
DYEAR=2007
DGENRE=New Wave
TTITLE0=Dead Souls (Live In Leeds 11.07.79)
TTITLE1=Shadowplay (Live In Leeds 11.07.79)
TTITLE2=She's Lost Control (Live In Leeds 11.07.79)
TTITLE3=Candidate (Live In Leeds 11.07.79)
TTITLE4=These Days (Live In Leeds 11.07.79)
TTITLE5=Disorder (Live In Leeds 11.07.79)
TTITLE6=Interzone (Live In Leeds 11.07.79)
TTITLE7=Glass (Live In Leeds 11.07.79)
TTITLE8=Transmission (Live In Leeds 11.07.79)
TTITLE9=Atrocity Exhibition (Live In Leeds 11.07.79)
TTITLE10=No Love Lost (Live In Leeds 11.07.79)
TTITLE11=The Sound Of Music (Live In London 31.08.79)
TTITLE12=Wilderness (Live In London 31.08.79)
TTITLE13=Colony (Live In London 31.08.79)
TTITLE14=Day Of The Lords (Live In London 31.08.79)
TTITLE15=Shadowplay (Live In London 31.08.79)
TTITLE16=Transmission (Live In London 31.08.79)
TTITLE17=Interzone (Live In London 31.08.79)
TTITLE18=Disorder (Live In London 31.08.79)
TTITLE19=She's Lost Control (Live In London 31.08.79)
TTITLE20=Insight (Live In London 31.08.79)
EXTD=
EXTT0=
EXTT1=
EXTT2=
EXTT3=
EXTT4=
EXTT5=
EXTT6=
EXTT7=
EXTT8=
EXTT9=
EXTT10=
EXTT11=
EXTT12=
EXTT13=
EXTT14=
EXTT15=
EXTT16=
EXTT17=
EXTT18=
EXTT19=
EXTT20=
PLAYORDER=
